
<svg xmlns="http://www.w3.org/2000/svg" xml:space="preserve" width="4.96011in" height="3.5225in" shape-rendering="geometricPrecision" text-rendering="geometricPrecision" image-rendering="optimizeQuality" fill-rule="evenodd" clip-rule="evenodd"
viewBox="0 0 4.9601 3.5225"
 xmlns:xlink="http://www.w3.org/1999/xlink">
 <g id="Layer_x0020_1">
  <metadata id="CorelCorpID_0Corel-Layer"/>
  <path fill="red" d="M1.97105 3.27688c-0.680397,-0.371295 -1.51499,-0.19296 -1.89599,-0.877165 -0.312346,-0.560901 0.405834,-1.34033 1.07411,-0.816432 0.00195275,-0.849157 0.993204,-0.888255 1.306,-0.338602 0.359626,0.631948 -0.350378,1.32323 -0.484118,2.0322l3.937e-006 0zm1.33764 -1.19959c-0.125059,-0.654196 -0.699055,-1.11066 -0.453015,-1.73703 0.201685,-0.513484 1.11099,-0.462456 1.12818,0.267027 0.564555,-0.462283 1.13168,0.174153 0.937692,0.681791 -0.223008,0.583657 -1.06937,0.489913 -1.61286,0.788216l0 -3.937e-006zm0.783173 1.44522c-0.312937,-0.245 -0.750058,-0.224972 -0.885239,-0.603074 -0.110819,-0.309933 0.317956,-0.643795 0.611917,-0.322645 0.07237,-0.42933 0.577015,-0.36576 0.689039,-0.0614606 0.128756,0.349886 -0.288464,0.639826 -0.415716,0.98718z"/>
 </g>
</svg>
